<?xml version="1.0" encoding="UTF-8" standalone="no"?>
<svg
   xmlns:dc="http://purl.org/dc/elements/1.1/"
   xmlns:cc="http://creativecommons.org/ns#"
   xmlns:rdf="http://www.w3.org/1999/02/22-rdf-syntax-ns#"
   xmlns:svg="http://www.w3.org/2000/svg"
   xmlns="http://www.w3.org/2000/svg"
   xmlns:sodipodi="http://sodipodi.sourceforge.net/DTD/sodipodi-0.dtd"
   xmlns:inkscape="http://www.inkscape.org/namespaces/inkscape"
   width="89.463615mm"
   height="22.599459mm"
   viewBox="0 0 89.463616 22.599459"
   version="1.1"
   id="svg8"
   inkscape:version="1.0.1 (c497b03c, 2020-09-10)"
   sodipodi:docname="logo-white.svg">
  <defs
     id="defs2">
    <rect
       x="70.047226"
       y="101.08922"
       width="66.625153"
       height="29.091463"
       id="rect854" />
  </defs>
  <sodipodi:namedview
     id="base"
     pagecolor="#ffffff"
     bordercolor="#666666"
     borderopacity="1.0"
     inkscape:pageopacity="0.0"
     inkscape:pageshadow="2"
     inkscape:zoom="2.3191941"
     inkscape:cx="217.01704"
     inkscape:cy="18.884525"
     inkscape:document-units="mm"
     inkscape:current-layer="layer1"
     inkscape:document-rotation="0"
     showgrid="false"
     inkscape:window-width="1680"
     inkscape:window-height="1022"
     inkscape:window-x="0"
     inkscape:window-y="0"
     inkscape:window-maximized="1" />
  <metadata
     id="metadata5">
    <rdf:RDF>
      <cc:Work
         rdf:about="">
        <dc:format>image/svg+xml</dc:format>
        <dc:type
           rdf:resource="http://purl.org/dc/dcmitype/StillImage" />
        <dc:title></dc:title>
      </cc:Work>
    </rdf:RDF>
  </metadata>
  <g
     inkscape:label="Layer 1"
     inkscape:groupmode="layer"
     id="layer1"
     transform="translate(6.6173371,-72.568179)">
    <g
       style="fill:#d7342a;fill-opacity:1"
       id="g847"
       transform="matrix(0.53564813,0,0,0.53840832,-8.7594578,66.634941)">
      <path
         d="m 30.090027,11.049988 c 0.08997,1.210022 0.359985,3.25 1.099976,5.169983 1.520019,-1.619995 2.880004,-3.089966 3.849975,-4.140015 C 33.190002,11.399963 31.25,11.149963 30.090027,11.049988 Z M 7.4400024,14.779968 C 2.3499755,22.149963 6.0499878,29.51001 7.4099731,31.73999 7.6199951,31.630005 7.830017,31.519959 8.0599975,31.419983 9.0499878,31 10.130005,30.630005 11.280029,30.25 12.349976,29.880005 13.48999,29.5 14.73999,29.01001 13.099976,26.98999 8.25,20.599976 7.4400024,14.779968 Z M 59.25,12.25 C 58.609985,11.469971 57.669983,11.019959 56.659973,11.019959 H 39.229981 c -0.389954,0 -0.75,0.190002 -0.979981,0.510009 -0.02002,0.03003 -0.03998,0.06 -0.07001,0.09003 0,0 -0.26001,0.299988 -0.729981,0.799988 -1.020019,1.119995 -3.280029,3.580017 -5.820007,6.270019 -2.440003,2.570008 -4.419983,4.599976 -5.890015,6.029969 -0.270019,0.260009 -0.659973,0.350036 -1.020019,0.230041 l -4.269959,-1.430053 v 4.490051 c 0,0.369995 -0.210022,0.719971 -0.549988,0.889953 -3.220031,1.630005 -5.860046,2.52002 -7.980041,3.240052 -1.159973,0.389953 -2.1599731,0.72998 -3.0799561,1.119995 -2.0700073,0.880005 -3.6200562,2.630005 -4.3600464,4.919983 -0.8800049,2.700012 -0.539978,5.779968 0.9200439,8.23999 l 0.9299927,1.570007 c 2.1300049,-0.160034 6.0799559,-1.97998 6.8099979,-3.440002 0.25,-0.48999 0.849975,-0.690003 1.339965,-0.440003 0.5,0.239991 0.700013,0.840027 0.450013,1.340027 -0.989991,1.979981 -4.649964,3.769959 -7.3200076,4.349976 C 10.559998,53.109985 15.429993,54 19.450012,51.75 l 11.909973,-6.840027 c 1.450013,-0.830017 3.25,-0.929993 4.799988,-0.26001 l 7.730042,3.390015 c 2.130005,0.950012 4.519958,0.890015 6.570007,-0.159973 2.049988,-1.059998 3.48999,-2.960022 3.940002,-5.230042 L 59.929993,15.01001 C 60.130005,14.029968 59.880005,13.019959 59.25,12.25 Z M 33.030029,28 c -0.550048,0 -1,-0.450012 -1,-1 0,-0.549988 0.449952,-1 1,-1 0.559998,0 1,0.450012 1,1 0,0.549988 -0.440002,1 -1,1 z M 46.409973,24.709961 C 46.210022,24.899963 45.960022,25 45.700012,25 c -0.26001,0 -0.51001,-0.100037 -0.710022,-0.290039 -0.390014,-0.389954 -0.390014,-1.019959 0,-1.419983 2.26001,-2.25 2.840027,-6.320007 2.98999,-8.229981 -1.919982,0.149964 -5.98999,0.729981 -8.23999,2.979981 -0.390014,0.390015 -1.020019,0.390015 -1.409973,0 -0.390015,-0.390015 -0.390015,-1.02002 0,-1.409973 C 41.909973,13.039978 48.73999,13 49.030029,13 c 0.559998,0 1,0.450012 1,1 0,0.289978 -0.04004,7.119995 -3.620056,10.709961 z"
         id="path833"
         style="fill:#d7342a;fill-opacity:1" />
    </g>
    <g
       aria-label="RYNO"
       id="text850"
       style="font-style:normal;font-weight:normal;font-size:21.1667px;line-height:1.25;font-family:sans-serif;fill:#000000;fill-opacity:1;stroke:none;stroke-width:0.264583">
      <path
         d="m 41.525741,83.316006 q 0.268717,0.165364 0.5271,0.599447 0.04134,0.06201 0.07235,0.103353 l 1.684654,2.666508 h 0.113689 0.206706 q 0.599447,0 0.899171,0.279054 0.310059,0.279053 0.310059,0.837159 0,0.609783 -0.310059,0.878501 -0.299724,0.268718 -1.002524,0.268718 h -1.271242 q -0.702801,0 -1.095543,-0.609783 l -0.03101,-0.02067 -2.53215,-3.896409 Q 38.95225,84.194506 38.766215,84.080818 38.580179,83.956794 38.373473,83.956794 h -0.971518 v 2.72852 h 0.165365 q 0.558106,0 0.837159,0.289389 0.289389,0.279053 0.289389,0.826824 0,0.609783 -0.299724,0.878501 -0.289389,0.268718 -0.992189,0.268718 h -2.666508 q -0.692466,0 -0.99219,-0.268718 -0.299723,-0.268718 -0.299723,-0.878501 0,-0.547771 0.279053,-0.826824 0.289388,-0.289389 0.837159,-0.289389 h 0.175701 v -7.710136 h -0.175701 q -0.537435,0 -0.826824,-0.289388 -0.289388,-0.299724 -0.289388,-0.847495 0,-0.599447 0.299723,-0.868165 0.31006,-0.279054 0.99219,-0.279054 h 4.764574 q 2.191084,0 3.317632,0.857831 1.126548,0.847494 1.126548,2.511478 0,1.157554 -0.630453,2.005049 -0.620118,0.847495 -1.788007,1.250572 z m -4.24781,-4.402839 v 2.92489 h 1.395266 q 1.291913,0 1.808678,-0.330729 0.516765,-0.341065 0.516765,-1.126548 0,-0.775148 -0.475424,-1.116213 -0.465088,-0.3514 -1.508954,-0.3514 z"
         style="font-style:normal;font-variant:normal;font-weight:bold;font-stretch:normal;font-size:21.1667px;font-family:Courier;-inkscape-font-specification:'Courier Bold';fill:#ffffff;fill-opacity:1;stroke-width:0.264583"
         id="path966" />
      <path
         d="m 50.114378,78.975178 1.612307,3.369309 1.53996,-3.369309 h -0.04134 q -0.465089,0 -0.713136,-0.289388 -0.237712,-0.289389 -0.237712,-0.847495 0,-0.620118 0.248047,-0.878501 0.258383,-0.268718 0.868166,-0.268718 h 2.356449 q 0.692465,0 0.981854,0.268718 0.289388,0.258383 0.289388,0.878501 0,0.558106 -0.289388,0.847495 -0.279054,0.289388 -0.816489,0.289388 h -0.165365 l -2.780197,5.167652 v 2.542484 h 1.353925 q 0.702801,0 0.992189,0.268718 0.299724,0.258383 0.299724,0.847495 0,0.599448 -0.310059,0.878501 -0.310059,0.268718 -1.002525,0.268718 h -5.353687 q -0.692465,0 -0.992189,-0.268718 -0.299723,-0.268718 -0.299723,-0.878501 0,-0.609783 0.289388,-0.85783 0.289389,-0.258383 1.002524,-0.258383 h 1.353925 v -2.24276 l -2.935226,-5.467376 h -0.1757 q -0.537436,0 -0.816489,-0.289388 -0.279053,-0.289389 -0.279053,-0.847495 0,-0.620118 0.289388,-0.878501 0.289389,-0.268718 0.981854,-0.268718 h 2.70785 q 0.609782,0 0.868165,0.268718 0.268718,0.268718 0.268718,0.878501 0,0.547771 -0.248047,0.847495 -0.237712,0.289388 -0.702801,0.289388 z"
         style="font-style:normal;font-variant:normal;font-weight:bold;font-stretch:normal;font-size:21.1667px;font-family:Courier;-inkscape-font-specification:'Courier Bold';fill:#ffffff;fill-opacity:1;stroke-width:0.264583"
         id="path968" />
      <path
         d="m 66.72321,84.66993 v -5.694752 h -0.568442 q -0.68213,0 -0.981853,-0.268717 -0.289389,-0.268718 -0.289389,-0.868166 0,-0.599447 0.289389,-0.868165 0.299723,-0.279054 0.981853,-0.279054 h 2.935226 q 0.671795,0 0.971519,0.279054 0.299724,0.268718 0.299724,0.868165 0,0.547771 -0.289389,0.847495 -0.279053,0.289388 -0.806154,0.289388 h -0.1757 v 9.384455 q 0,0.48576 -0.103353,0.609783 -0.103353,0.124024 -0.465088,0.124024 h -1.033531 q -0.496094,0 -0.7028,-0.103353 -0.196371,-0.103353 -0.341065,-0.361736 l -4.299486,-7.555106 v 5.612069 h 0.599447 q 0.671795,0 0.961183,0.258383 0.289389,0.258383 0.289389,0.85783 0,0.609783 -0.299724,0.878501 -0.289388,0.268718 -0.950848,0.268718 h -2.966232 q -0.671794,0 -0.971518,-0.268718 -0.299724,-0.268718 -0.299724,-0.878501 0,-0.547771 0.279053,-0.826824 0.279053,-0.289389 0.826825,-0.289389 h 0.165364 v -7.710136 h -0.165364 q -0.527101,0 -0.816489,-0.289388 -0.289389,-0.299724 -0.289389,-0.847495 0,-0.599447 0.299724,-0.868165 0.310059,-0.279054 0.971518,-0.279054 h 1.69499 q 0.609783,0 0.826824,0.165365 0.217042,0.15503 0.48576,0.640789 z"
         style="font-style:normal;font-variant:normal;font-weight:bold;font-stretch:normal;font-size:21.1667px;font-family:Courier;-inkscape-font-specification:'Courier Bold';fill:#ffffff;fill-opacity:1;stroke-width:0.264583"
         id="path970" />
      <path
         d="m 77.017171,78.747802 q -1.333254,0 -2.098066,1.074871 -0.754477,1.074872 -0.754477,2.986903 0,1.912031 0.764812,2.997238 0.764812,1.085206 2.087731,1.085206 1.333254,0 2.098067,-1.074871 0.764812,-1.085207 0.764812,-3.007573 0,-1.912031 -0.764812,-2.986903 -0.754477,-1.074871 -2.098067,-1.074871 z m 0,-2.397791 q 2.542485,0 4.185798,1.819014 1.643313,1.819013 1.643313,4.640551 0,2.842208 -1.632978,4.650886 -1.632978,1.808678 -4.196133,1.808678 -2.532149,0 -4.185798,-1.819013 -1.653648,-1.829349 -1.653648,-4.640551 0,-2.831873 1.632978,-4.640551 1.643313,-1.819014 4.206468,-1.819014 z"
         style="font-style:normal;font-variant:normal;font-weight:bold;font-stretch:normal;font-size:21.1667px;font-family:Courier;-inkscape-font-specification:'Courier Bold';fill:#ffffff;fill-opacity:1;stroke-width:0.264583"
         id="path972" />
    </g>
  </g>
</svg>
